<?xml version="1.0" standalone="no"?>
<!DOCTYPE svg PUBLIC "-//W3C//DTD SVG 20010904//EN"
 "http://www.w3.org/TR/2001/REC-SVG-20010904/DTD/svg10.dtd">
<svg version="1.0" xmlns="http://www.w3.org/2000/svg"
 width="700.000000pt" height="700.000000pt" viewBox="0 0 700.000000 700.000000"
 preserveAspectRatio="xMidYMid meet">
<metadata>
Created by potrace 1.11, written by Peter Selinger 2001-2013
</metadata>
<g transform="translate(0.000000,700.000000) scale(0.100000,-0.100000)"
fill="#000000" stroke="none">
<path d="M2965 6329 c-988 -101 -1818 -686 -2245 -1581 -279 -588 -354 -1290
-205 -1951 181 -810 702 -1505 1415 -1889 183 -99 447 -195 651 -238 216 -45
300 -52 711 -57 629 -9 878 16 1240 123 730 214 1352 744 1688 1439 339 701
391 1513 144 2260 -224 679 -680 1242 -1285 1585 -280 159 -653 277 -978 310
-120 12 -1017 11 -1136 -1z m1166 -133 c768 -96 1445 -552 1865 -1258 194
-326 325 -719 376 -1128 17 -136 17 -524 0 -660 -64 -516 -243 -965 -543
-1367 -96 -127 -377 -410 -501 -502 -271 -201 -555 -342 -868 -431 -179 -51
-520 -113 -493 -90 5 4 46 22 93 40 362 142 728 403 994 710 396 458 620 956
707 1570 25 175 30 522 10 670 -51 379 -190 730 -408 1022 -511 687 -1367 957
-2143 676 -539 -195 -980 -645 -1183 -1208 -204 -566 -177 -1174 77 -1705 74
-154 124 -238 218 -362 187 -250 424 -447 702 -584 l119 -59 -94 0 c-113 0
-293 28 -421 65 -551 161 -996 590 -1212 1167 -78 209 -115 407 -123 664 -25
754 271 1513 797 2044 400 404 931 668 1465 728 129 15 439 13 566 -2z m-1142
0 c-2 -2 -38 -18 -79 -34 -612 -245 -1109 -709 -1420 -1327 -154 -306 -250
-622 -301 -995 -20 -143 -18 -558 3 -690 136 -852 721 -1514 1505 -1704 277
-67 622 -60 903 19 217 61 406 152 600 290 112 79 350 316 437 435 186 255
307 528 372 840 71 345 57 722 -39 1058 -166 573 -546 1035 -1062 1288 l-113
56 120 -6 c777 -33 1439 -587 1666 -1393 82 -293 97 -629 43 -993 -141 -960
-769 -1782 -1622 -2124 -193 -78 -381 -127 -602 -157 -152 -21 -478 -16 -637
9 -540 87 -986 316 -1379 707 -299 298 -511 635 -651 1035 -122 347 -170 667
-160 1054 12 455 112 844 318 1235 123 235 255 416 449 615 360 370 796 615
1300 730 160 37 364 67 349 52z m664 -857 c563 -188 1006 -662 1188 -1269 118
-399 111 -857 -21 -1250 -188 -559 -612 -1006 -1126 -1189 -178 -63 -208 -68
-300 -43 -326 88 -656 299 -877 559 -366 432 -538 1002 -472 1563 57 492 256
900 599 1227 228 218 470 354 786 442 47 13 83 7 223 -40z"/>
</g>
</svg>
