<?xml version="1.0" standalone="no"?>
<!DOCTYPE svg PUBLIC "-//W3C//DTD SVG 20010904//EN"
 "http://www.w3.org/TR/2001/REC-SVG-20010904/DTD/svg10.dtd">
<svg version="1.0" xmlns="http://www.w3.org/2000/svg"
 width="700.000000pt" height="700.000000pt" viewBox="0 0 700.000000 700.000000"
 preserveAspectRatio="xMidYMid meet">
<metadata>
Created by potrace 1.11, written by Peter Selinger 2001-2013
</metadata>
<g transform="translate(0.000000,700.000000) scale(0.100000,-0.100000)"
fill="#000000" stroke="none">
<path d="M3197 6344 c-1 -1 -58 -4 -127 -8 -69 -3 -168 -13 -220 -22 -52 -8
-111 -17 -130 -20 -19 -3 -41 -7 -49 -10 -8 -2 -29 -7 -48 -10 -18 -3 -87 -21
-153 -39 -457 -131 -864 -369 -1195 -699 -354 -355 -578 -743 -734 -1271 -28
-93 -76 -351 -86 -460 -3 -33 -7 -85 -10 -115 -7 -67 -6 -356 0 -425 13 -139
21 -209 29 -255 2 -8 6 -37 10 -65 13 -83 62 -284 96 -390 80 -250 196 -496
338 -715 49 -75 136 -196 152 -210 3 -3 17 -21 31 -40 32 -42 57 -70 153 -170
297 -308 646 -534 1042 -671 142 -49 354 -99 484 -114 30 -3 89 -10 130 -14
79 -9 993 -7 1045 2 17 3 59 8 95 12 36 3 88 10 115 15 28 5 66 12 85 15 171
28 458 119 647 207 85 39 266 140 343 191 75 49 171 117 180 127 3 3 39 32 80
65 90 71 283 264 361 361 380 467 595 1006 649 1624 7 89 5 456 -4 525 -3 22
-8 65 -11 95 -9 87 -41 257 -70 371 -142 562 -462 1092 -878 1456 -83 73 -98
85 -177 145 -297 224 -643 379 -1040 464 -50 11 -207 32 -290 40 -69 6 -837
13 -843 8z m828 -139 c50 -3 101 -7 115 -9 14 -3 59 -10 100 -16 41 -6 129
-25 195 -42 745 -190 1366 -730 1707 -1483 92 -203 178 -492 204 -681 3 -27 8
-52 10 -55 2 -4 6 -35 10 -70 3 -35 8 -75 10 -89 10 -46 12 -454 4 -530 -5
-41 -12 -100 -15 -130 -4 -30 -13 -91 -22 -135 -8 -44 -17 -91 -19 -105 -11
-63 -87 -315 -124 -410 -312 -810 -983 -1409 -1815 -1620 -82 -21 -172 -41
-199 -45 -27 -3 -52 -8 -56 -10 -3 -2 -40 -7 -81 -11 -40 -3 -78 -9 -84 -12
-7 -3 -7 -2 0 5 6 5 37 20 70 32 92 35 281 127 375 184 306 184 519 377 797
721 78 97 237 369 309 527 119 265 215 597 239 824 4 33 8 63 11 66 16 26 24
452 11 579 -71 683 -427 1264 -982 1601 -128 78 -231 125 -380 174 -113 38
-170 51 -335 80 -60 11 -362 14 -425 4 -140 -20 -204 -32 -275 -51 -659 -173
-1192 -711 -1391 -1403 -16 -55 -31 -111 -34 -124 -2 -14 -9 -47 -15 -75 -39
-193 -47 -530 -16 -736 52 -352 191 -695 392 -967 77 -104 88 -116 204 -233
117 -117 194 -181 320 -263 83 -54 259 -147 278 -147 5 0 14 -6 20 -13 12 -14
20 -14 -158 -3 -387 24 -787 208 -1082 498 -394 387 -600 896 -599 1478 1 211
34 480 83 665 5 22 12 49 14 60 16 85 112 341 184 492 266 557 704 1001 1233
1252 180 86 447 173 597 195 19 3 62 10 95 16 33 6 116 13 185 16 69 4 126 7
127 9 3 2 72 -1 208 -10z m-1071 -24 c-23 -10 -52 -22 -65 -26 -124 -39 -490
-252 -625 -364 -17 -14 -52 -44 -79 -66 -132 -108 -309 -296 -428 -456 -306
-409 -508 -919 -567 -1429 -25 -221 -27 -456 -5 -625 4 -27 9 -65 11 -84 10
-73 48 -231 79 -326 106 -328 271 -601 505 -836 134 -134 170 -165 305 -254
131 -88 281 -163 413 -210 110 -38 283 -82 357 -89 28 -3 74 -8 102 -11 126
-15 296 -7 468 20 71 11 79 13 155 34 521 141 960 498 1227 1001 102 191 211
532 227 710 3 25 8 69 11 98 15 112 9 397 -10 517 -25 157 -46 246 -87 375
-37 116 -43 131 -123 295 -196 403 -510 719 -910 917 l-120 59 120 -5 c145 -8
173 -11 295 -38 577 -126 1065 -556 1301 -1145 53 -131 112 -353 124 -464 3
-30 8 -67 11 -84 9 -50 11 -345 3 -430 -4 -44 -10 -107 -14 -140 -3 -33 -9
-82 -15 -110 -5 -27 -12 -68 -15 -90 -24 -167 -128 -484 -226 -690 -401 -839
-1164 -1393 -2039 -1481 -144 -15 -429 -9 -560 11 -19 3 -46 7 -60 9 -121 18
-331 76 -465 129 -825 323 -1425 1050 -1624 1967 -20 96 -24 118 -41 245 -19
143 -28 463 -16 575 2 19 7 65 11 102 3 37 7 75 9 85 2 10 7 41 11 68 4 28 18
100 32 160 13 61 26 119 29 130 2 11 20 69 40 130 284 855 925 1483 1774 1738
130 39 375 88 480 95 l35 2 -41 -19z m617 -816 c474 -134 878 -468 1118 -925
79 -152 151 -337 176 -455 2 -11 6 -31 9 -45 9 -38 25 -122 31 -155 27 -155
25 -454 -5 -630 -23 -138 -30 -171 -55 -255 -110 -375 -311 -691 -602 -945
-195 -171 -459 -311 -697 -371 -78 -19 -100 -16 -260 38 -384 131 -734 419
-959 790 -64 106 -157 295 -157 320 0 8 -4 18 -10 24 -10 10 -75 228 -84 284
-3 19 -8 46 -11 60 -12 62 -15 79 -22 135 -9 81 -9 404 0 485 81 674 482 1258
1057 1536 109 53 316 127 373 133 4 1 49 -10 98 -24z"/>
</g>
</svg>
